<svg xmlns="http://www.w3.org/2000/svg" width="310" height="179" viewBox="0 0 310 179">
  <defs>
    <linearGradient id="linear-gradient" x1="0.5" x2="0.5" y2="1">
      <stop offset="0" stop-color="#d3942b"/>
      <stop offset="1" stop-color="#3c51a1" stop-opacity="0"/>
    </linearGradient>
    <linearGradient id="linear-gradient-3" x1="0.5" x2="0.5" y2="1">
      <stop offset="0" stop-color="#3c51a1"/>
      <stop offset="1" stop-color="#3c51a1" stop-opacity="0"/>
    </linearGradient>
    <linearGradient id="linear-gradient-4" x1="0.5" x2="0.5" y2="1">
      <stop offset="0" stop-color="#d3942b"/>
      <stop offset="1" stop-color="#3c51a1"/>
    </linearGradient>
  </defs>
  <g id="Group_40516" transform="translate(-32 -211)">
    <rect id="Rectangle_18142" width="310" height="179" rx="20" transform="translate(32 211)" fill="#edf0f5" opacity="0.7"/>
    <text id="Upload_file" transform="translate(147 299)" fill="#2b2f38" font-size="16" font-family="SegoeUI-Semibold, Segoe UI" font-weight="600"><tspan x="0" y="0">Upload File</tspan></text>
    <text id="Try_to_upload_files_with_jpg_png_doc_pdf_...etc" transform="translate(51.5 308.478)" fill="#767777" font-size="15" font-family="SegoeUI, Segoe UI"><tspan x="32.11" y="16">Try to upload files with jpg,png,</tspan><tspan x="94.494" y="37">doc,pdf,...etc</tspan></text>
    <g id="Group_40514" transform="translate(0 -8)" opacity="0.59">
      <rect id="Rectangle_17995" width="50" height="58" transform="matrix(0.921, 0.391, -0.391, 0.921, 221.434, 236.037)" opacity="0.21" fill="url(#linear-gradient)"/>
      <rect id="Rectangle_17997" width="50" height="58" transform="translate(162.5 237.018)" opacity="0.21" fill="url(#linear-gradient)"/>
      <rect id="Rectangle_17996" width="50" height="58" transform="translate(108.231 248.867) rotate(-13)" opacity="0.21" fill="url(#linear-gradient-3)"/>
    </g>
    <g id="Group_40515" transform="translate(-9621.887 963)">
      <path id="Path_33707" d="M96.012,50.569A14.168,14.168,0,0,0,82.152,61.83h-.136a12.008,12.008,0,1,0,0,24.017h4.407a1.081,1.081,0,1,0,0-2.161H82.016a9.848,9.848,0,0,1,0-19.7c.289,0,.595.016.935.048a1.082,1.082,0,0,0,1.172-.93,12.007,12.007,0,0,1,23.9,1.635c0,.239-.045.855-.045.855a1.08,1.08,0,0,0,1.186,1.151,8.621,8.621,0,0,1,.862-.043,8.489,8.489,0,1,1,0,16.978h-4.84a1.081,1.081,0,0,0,0,2.161h4.84a10.65,10.65,0,0,0,.157-21.3A14.192,14.192,0,0,0,96.011,50.569Zm0,5.079a9.115,9.115,0,0,0-9,7.855,1.081,1.081,0,1,0,2.142.292,6.946,6.946,0,0,1,6.856-5.985,1.081,1.081,0,1,0,0-2.162ZM95.806,74.46a1.78,1.78,0,0,0-1.189.454l-3.931,3.512a1.081,1.081,0,0,0,1.44,1.612l2.6-2.322V91.01a1.081,1.081,0,0,0,2.161,0v-13.3l2.6,2.322a1.081,1.081,0,1,0,1.44-1.612L97,74.914a1.781,1.781,0,0,0-1.189-.454Z" transform="translate(9713.879 -778.569)" fill="url(#linear-gradient-4)"/>
    </g>
  </g>
</svg>
