<svg xmlns="http://www.w3.org/2000/svg" width="12.672" height="12.672" viewBox="0 0 12.672 12.672">
  <g id="noun-calendar-4805908" transform="translate(-99.16 -29.168)">
    <path id="Path_33624" data-name="Path 33624" d="M111.832,75.3V72.21a2.21,2.21,0,0,0-2.21-2.21H101.37a2.21,2.21,0,0,0-2.21,2.21v7.073a2.21,2.21,0,0,0,2.21,2.21H105.5a.442.442,0,0,0,0-.884H101.37a1.326,1.326,0,0,1-1.326-1.326V72.21a1.326,1.326,0,0,1,1.326-1.326h8.252a1.326,1.326,0,0,1,1.326,1.326V75.3a.442.442,0,0,0,.884,0Z" transform="translate(0 -39.801)" fill="#d3942b" fill-rule="evenodd"/>
    <path id="Path_33625" data-name="Path 33625" d="M111.39,210H99.6a.442.442,0,1,0,0,.884H111.39a.442.442,0,0,0,0-.884Z" transform="translate(0 -176.264)" fill="#d3942b" fill-rule="evenodd"/>
    <path id="Path_33626" data-name="Path 33626" d="M227.5,29.61v2.063a.442.442,0,1,0,.884,0V29.61a.442.442,0,1,0-.884,0Z" transform="translate(-125.098 0)" fill="#d3942b" fill-rule="evenodd"/>
    <path id="Path_33627" data-name="Path 33627" d="M437.5,29.61v2.063a.442.442,0,0,0,.884,0V29.61a.442.442,0,0,0-.884,0Z" transform="translate(-329.793 0)" fill="#d3942b" fill-rule="evenodd"/>
    <path id="Path_33628" data-name="Path 33628" d="M358.924,285.83a3.094,3.094,0,1,0,3.094,3.094A3.1,3.1,0,0,0,358.924,285.83Zm0,.884a2.21,2.21,0,1,1-2.21,2.21A2.211,2.211,0,0,1,358.924,286.714Z" transform="translate(-250.186 -250.179)" fill="#d3942b" fill-rule="evenodd"/>
    <path id="Path_33629" data-name="Path 33629" d="M414.3,363.021l.884.884a.442.442,0,0,0,.625,0l1.473-1.473a.442.442,0,1,0-.625-.625l-1.161,1.161-.572-.571a.442.442,0,0,0-.625.625Z" transform="translate(-307.056 -324.11)" fill="#d3942b" fill-rule="evenodd"/>
  </g>
</svg>
