<svg xmlns="http://www.w3.org/2000/svg" width="48" height="48" viewBox="0 0 48 48">
  <g id="Group_40523" transform="translate(-42 -366)">
    <rect id="Rectangle_18014" width="48" height="48" rx="10" transform="translate(42 366)" fill="#3c51a1" opacity="0.1"/>
    <g id="noun-docx-323783" transform="translate(53 375)">
      <path id="Path_33716" d="M168.388,339.05h-2.33v4.739h2.357q1.121,0,1.441-.5a5.087,5.087,0,0,0,.319-2.28,2.263,2.263,0,0,0-.4-1.52,1.822,1.822,0,0,0-1.39-.434Zm.686,3.685q-.189.3-.835.3h-1.282v-3.226h1.337c.419,0,.686.094.8.284a3.181,3.181,0,0,1,.17,1.334,2.875,2.875,0,0,1-.19,1.31Z" transform="translate(-163.425 -320.395)" fill="#3c51a1"/>
      <path id="Path_33717" d="M250.906,338.27q-1.451,0-1.824.434a3.794,3.794,0,0,0-.372,2.128,2.976,2.976,0,0,0,.379,1.842,2.323,2.323,0,0,0,1.67.419q1.434,0,1.807-.423a3.546,3.546,0,0,0,.374-2.053,3.244,3.244,0,0,0-.372-1.918,2.254,2.254,0,0,0-1.663-.429Zm.955,3.818c-.112.156-.446.235-1,.235-.582,0-.935-.069-1.053-.209a2.406,2.406,0,0,1-.179-1.228,4.492,4.492,0,0,1,.152-1.612c.1-.155.455-.232,1.059-.232q.875,0,1.033.217a3.406,3.406,0,0,1,.158,1.408,3.337,3.337,0,0,1-.166,1.421Z" transform="translate(-241.531 -319.658)" fill="#3c51a1"/>
      <path id="Path_33718" d="M336.551,341.594c0,.315-.066.518-.2.612a1.749,1.749,0,0,1-.868.14q-.826,0-.978-.25a4.639,4.639,0,0,1-.15-1.612,2.5,2.5,0,0,1,.168-1.215q.169-.2,1.006-.205a1.553,1.553,0,0,1,.8.13q.178.132.177.6v.121h.9l0-.107a1.614,1.614,0,0,0-.341-1.207,2.136,2.136,0,0,0-1.354-.3,3.067,3.067,0,0,0-1.83.37,2.017,2.017,0,0,0-.437,1.544,5.434,5.434,0,0,0,.323,2.451q.324.458,1.725.458a2.863,2.863,0,0,0,1.6-.29,1.642,1.642,0,0,0,.361-1.28v-.165h-.9Z" transform="translate(-321.6 -319.679)" fill="#3c51a1"/>
      <path id="Path_33719" d="M413.007,339.05h-1.063l-.632,1.059q-.168.277-.278.493l-.087.164-.087.167h-.014l-.087-.167-.088-.168c-.088-.162-.181-.326-.281-.493l-.632-1.055h-1.073l1.444,2.294-1.555,2.445h1.083l.684-1.139q.23-.378.41-.719l.1-.187h.014l.1.184.1.187c.1.181.194.359.3.535l.681,1.139H413.1l-1.516-2.445Z" transform="translate(-392.6 -320.395)" fill="#3c51a1"/>
      <path id="Path_33720" d="M120.451,0V16.67h-2.239v8.78l2.238,2.238v3.124h23.267V6.441L137.278,0Zm-1.276,24.486V17.632h21.272v6.854Zm23.581,5.362H121.414v-4.4h20v-8.78h-20V.962h15.381V6.922h5.96V29.848Zm-5-27.524,3.636,3.635h-3.636Z" transform="translate(-118.212)" fill="#3c51a1"/>
    </g>
  </g>
</svg>
