<svg xmlns="http://www.w3.org/2000/svg" width="48" height="48" viewBox="0 0 48 48">
  <g id="Group_40522" transform="translate(-42 -240)">
    <rect id="Rectangle_17998" width="48" height="48" rx="10" transform="translate(42 240)" fill="#d3942b" opacity="0.1"/>
    <path id="Path_33721" d="M86.92,53.609h20.022a5.462,5.462,0,0,1,5.447,5.448V74.228a5.427,5.427,0,0,1-.181,1.391v0a5.471,5.471,0,0,1-5.265,4.052H86.92a5.462,5.462,0,0,1-5.447-5.447V59.058A5.462,5.462,0,0,1,86.92,53.61Zm-4,18.869,4.966-4.965a.723.723,0,0,1,1.024,0l5.474,5.474,7.338-7.338a.723.723,0,0,1,1.024,0l8.191,8.191V59.057a4.012,4.012,0,0,0-4-4H86.919a4.012,4.012,0,0,0-4,4V72.478Zm27.762,3.154-8.446-8.446L94.9,74.524a.723.723,0,0,1-1.024,0L88.4,69.05l-5.468,5.468a4.014,4.014,0,0,0,3.987,3.709h20.022a4.019,4.019,0,0,0,3.741-2.594ZM93.772,58.785a2.787,2.787,0,1,1-1.97.816A2.776,2.776,0,0,1,93.772,58.785Zm.946,1.841a1.338,1.338,0,1,0,.392.946A1.334,1.334,0,0,0,94.718,60.626Z" transform="translate(-30.473 197.391)" fill="#d3942b"/>
  </g>
</svg>
