<svg xmlns="http://www.w3.org/2000/svg" width="48" height="48" viewBox="0 0 48 48">
  <g id="Group_40524" transform="translate(-42 -492)">
    <rect id="Rectangle_18015" width="48" height="48" rx="10" transform="translate(42 492)" fill="#d3942b" opacity="0.1"/>
    <path id="noun-pdf-2956526" d="M114.278,11.635a.668.668,0,0,0-.668.669V23.229h-2.579a.633.633,0,0,0-.632.635v11.52a.633.633,0,0,0,.632.631h2.579V40.09h0a.668.668,0,0,0,.668.668h21.454a.669.669,0,0,0,.669-.668V20.5h0v0c0-.021,0-.042-.006-.063h0c0-.017-.005-.033-.008-.049s-.006-.027-.01-.041l0-.015,0-.01c0-.011-.007-.022-.011-.032l-.014-.033,0-.01c-.006-.013-.012-.025-.019-.037l-.012-.022-.009-.013c-.008-.014-.017-.027-.026-.04l0,0-.026-.033-.016-.019-.025-.027-8.215-8.215h0q-.023-.024-.048-.045h0a.668.668,0,0,0-.422-.152H114.278Zm.669,1.337h11.9v7.547a.668.668,0,0,0,.669.669h7.547V39.421H114.947V36.052h16.468a.668.668,0,0,0,.668-.668V23.861a.668.668,0,0,0-.668-.669H114.947Zm13.238.945,5.935,5.938h-5.935ZM111.666,24.5h2.411a.669.669,0,0,0,.2.032h16.468V34.715H114.278a.669.669,0,0,0-.2.033h-2.407ZM113.5,26.57v6.105h.811V30.4h.812a3.226,3.226,0,0,0,1.086-.156,2.052,2.052,0,0,0,.747-.475,1.782,1.782,0,0,0,.393-.6,1.968,1.968,0,0,0,.143-.755,1.807,1.807,0,0,0-.192-.882,1.631,1.631,0,0,0-.538-.581,2.063,2.063,0,0,0-.676-.288,3.937,3.937,0,0,0-.931-.094Zm5.067,0v6.105h1.542a6.4,6.4,0,0,0,1.353-.115,3.009,3.009,0,0,0,.936-.373,2.7,2.7,0,0,0,.963-1.05,3.125,3.125,0,0,0,.365-1.509,3.2,3.2,0,0,0-.349-1.538,2.729,2.729,0,0,0-.972-1.037,3.049,3.049,0,0,0-.894-.352,6.083,6.083,0,0,0-1.418-.131Zm6.479,0v6.105h.811v-2.94h2.653v-.721h-2.653V27.292h3.087v-.722Zm-10.734.7h.8a2.925,2.925,0,0,1,.635.057,1.325,1.325,0,0,1,.451.181.925.925,0,0,1,.336.382,1.27,1.27,0,0,1,.11.549,1.375,1.375,0,0,1-.082.488,1.128,1.128,0,0,1-.77.7,3.046,3.046,0,0,1-.8.086h-.685Zm5.068,0h.763a4.98,4.98,0,0,1,.972.082,2.491,2.491,0,0,1,.767.283,1.834,1.834,0,0,1,.745.775,2.647,2.647,0,0,1,.251,1.209,2.731,2.731,0,0,1-.23,1.19,1.825,1.825,0,0,1-.681.767,2.3,2.3,0,0,1-.8.32,5.3,5.3,0,0,1-1.02.085h-.763Z" transform="translate(-57.399 489.366)" fill="#2b2f38"/>
  </g>
</svg>
