<svg xmlns="http://www.w3.org/2000/svg" width="40" height="40" viewBox="0 0 40 40">
  <g id="Group_40180" data-name="Group 40180" transform="translate(-120 -48)">
    <path id="Path_12196" data-name="Path 12196" d="M20,0A20,20,0,1,0,40,20,20,20,0,0,0,20,0Z" transform="translate(120 48)" fill="#fff" opacity="0.1"/>
    <path id="Path_33767" data-name="Path 33767" d="M102.31,31.245,97.43,26.37a8.388,8.388,0,1,0-1.169,1.165l4.875,4.875a.827.827,0,0,0,1.173-1.165ZM97.671,21.083a6.693,6.693,0,1,1-6.693-6.693A6.7,6.7,0,0,1,97.671,21.083Z" transform="translate(47.769 45.66)" fill="#fff"/>
  </g>
</svg>
