<svg xmlns="http://www.w3.org/2000/svg" width="26.428" height="21.8" viewBox="0 0 26.428 21.8">
  <g id="Group_40154" transform="translate(-9783.487 728.4)">
    <path id="Path_33707" d="M83.16,50.569a7.165,7.165,0,0,0-7.01,5.7h-.069a6.073,6.073,0,0,0,0,12.147H78.31a.547.547,0,1,0,0-1.093H76.081a4.981,4.981,0,1,1,0-9.961c.146,0,.3.008.473.024a.547.547,0,0,0,.593-.47,6.072,6.072,0,0,1,12.089.827c0,.121-.023.433-.023.433a.546.546,0,0,0,.6.582,4.359,4.359,0,0,1,.436-.022,4.293,4.293,0,1,1,0,8.587H87.8a.547.547,0,0,0,0,1.093h2.448a5.387,5.387,0,0,0,.079-10.772,7.178,7.178,0,0,0-7.169-7.07Zm0,2.569a4.61,4.61,0,0,0-4.551,3.973.547.547,0,1,0,1.083.148,3.513,3.513,0,0,1,3.468-3.027.547.547,0,1,0,0-1.093Zm-.1,9.514a.9.9,0,0,0-.6.23l-1.988,1.776a.547.547,0,1,0,.728.815L82.509,64.3v6.724a.547.547,0,0,0,1.093,0V64.3l1.315,1.174a.546.546,0,1,0,.728-.815l-1.988-1.776a.9.9,0,0,0-.6-.23Z" transform="translate(9713.879 -778.569)" fill="#d3942b" stroke="#d3942b" stroke-width="0.8"/>
  </g>
</svg>
